<svg xmlns="http://www.w3.org/2000/svg" viewBox="0 0 537.23749 78.873878" height="78.874" width="537.237"><defs><clipPath id="a"><path d="M0 63.099h429.79V0H0v63.099z"/></clipPath></defs><g clip-path="url(#a)" transform="matrix(1.25 0 0 -1.25 0 78.874)"><path d="M222.76 14.652C222.76 3.375 226.967 0 235.861 0c2.581 0 5.877.357 8.021.913l-1.23 5.758c-1.35-.437-3.693-.755-5.44-.755-5.56 0-7.624 1.033-7.624 8.657 0 7.663 2.064 8.457 7.623 8.457 1.748 0 4.09-.278 5.44-.754l1.231 5.638c-2.104.596-5.44.993-8.02.993-8.895 0-13.104-2.938-13.104-14.255M266.973.556h7.068c-2.978 7.227-7.108 19.02-9.729 27.676h-9.887c-3.176-7.783-7.504-19.933-9.807-27.676h6.83a219.58 219.58 0 0 0 1.786 6.115h11.396a132.263 132.263 0 0 1 2.343-6.115m-7.465 22.117c.834-2.938 2.025-6.711 3.296-10.483h-7.942c1.271 3.852 2.541 7.584 3.613 10.483h1.033zM285.858.556v22.077h9.211v5.599h-24.896v-5.599h9.252V.556h6.432zm11.637 27.676V.556h20.648v5.599h-14.255v6.035h10.205v5.48h-10.205v4.963h14.255v5.599h-20.648zm41.05-5.599V.556h6.392v27.676H325.56c-.437-10.086-2.899-19.457-5.599-27.676h6.79c2.661 7.624 4.09 15.287 4.725 22.077h7.068zm27.83 0V.556h6.393v27.676h-19.377c-.437-10.086-2.899-19.457-5.599-27.676h6.79c2.66 7.624 4.09 15.287 4.725 22.077h7.068zm36.07 5.599h-7.823c-3.415-6.314-7.187-12.746-10.999-18.98v18.98h-6.273V.556h8.378a324.305 324.305 0 0 1 10.403 18.226V.556h6.313v27.676zM420.577.556v22.077h9.212v5.599h-24.896v-5.599h9.252V.556h6.432zM230.462 62.424h-6.393V34.748h21.482v-6.115h5.678l.873 11.992h-4.844v21.8h-6.393v-21.8h-10.403v21.8zm24.07 0V34.748h20.648v5.6h-14.255v6.034h10.205v5.48h-10.205v4.963h14.255v5.6h-20.648zm28.446-16.042h4.805c2.7 0 4.05-.675 4.05-3.176 0-2.422-1.35-3.137-6.194-3.137-1.906 0-5.52.278-7.108.754l-1.19-5.678c2.54-.556 6.908-.953 9.806-.953 8.061 0 11.674 2.025 11.674 7.981 0 4.328-1.27 6.91-6.512 7.148 4.964.397 5.917 2.74 5.917 6.591 0 5.281-2.859 7.187-11.079 7.187-3.176 0-7.187-.437-9.688-.993l1.191-5.598c1.55.476 5.083.754 6.99.754 4.644 0 5.756-.635 5.756-2.66 0-2.224-1.072-2.74-3.772-2.74h-4.646v-5.48zm39.028-11.634h7.068c-2.978 7.227-7.108 19.02-9.729 27.676h-9.887c-3.176-7.783-7.504-19.933-9.807-27.676h6.83a218.584 218.584 0 0 0 1.786 6.115h11.396a132.263 132.263 0 0 1 2.343-6.115m-7.465 22.117c.834-2.938 2.025-6.71 3.296-10.483h-7.942c1.271 3.852 2.541 7.584 3.614 10.483h1.032zm22.784-8.219v8.298h6.91c1.746 0 2.7-1.23 2.7-4.248 0-2.899-1.113-4.05-2.78-4.05h-6.83zm0-13.898v8.617h9.093c5.162 0 7.544 4.328 7.544 9.331 0 5.678-1.906 9.728-7.584 9.728h-15.446V34.748h6.393zm25.833 5.44v7.902h7.147c1.588 0 2.621-1.072 2.621-3.93 0-2.78-.834-3.972-2.542-3.972h-7.226zm-6.393 22.236V34.748h15.803c5.242 0 7.346 3.614 7.346 9.411 0 5.122-2.263 9.331-7.465 9.331h-9.29v8.934h-6.394z"/><path d="M102.254 28.2L74.61.556h20.449L122.702 28.2h-20.448zm40.919 0L115.533.559h20.454l27.641 27.64h-20.455zm40.905 0L156.45.595h20.445l27.57 27.605h-20.387z" fill="#005ca9"/><path d="M156.925 62.419l-34.216-34.212V7.74l54.676 54.679h-20.46zm-40.918 0l-34.22-34.214V7.733l20.466 20.474 34.213 34.212h-20.459zm81.836 0l-34.217-34.215V7.769l54.676 54.65h-20.46z" fill="#ffd800"/><path d="M20.484 28.2L0 7.69.016.557h13.273L40.932 28.2H20.484zm40.919 0L33.763.559h20.454l27.641 27.64H61.403z" fill="#005ca9"/><path d="M75.195 62.424L40.979 28.212V7.745l54.676 54.68h-20.46zm-40.955 0L.026 28.212V7.745L54.7 62.425H34.24zM.018 62.419L.017 48.778l13.616 13.64H.018z" fill="#ffd800"/></g></svg>